# xmcd
#
# Track frame offsets:
#	150
#	14518
#	30493
#	46253
#	64791
#	76929
#	91639
#	106058
#	120639
#	136631
#	151576
#	165461
#	179269
#	195074
#	211174
#	225344
#	238207
#
# Disc length: 3360 seconds
#
# Revision: 1
# Processed by: cddbd v1.5.2PL0 Copyright (c) Steve Scherf et al.
# Submitted via: audiograbber 1.83.01
#
DISCID=b70d1e11
DTITLE=Compilation - The Best of Classic Country '80s
DYEAR=2006
DGENRE=Country
TTITLE0=Eddie Rabbitt - I Love a Rainy Night
TTITLE1=Johnny Lee - Lookin' for Love
TTITLE2=The Judds - Why Not Me
TTITLE3=Don Williams - I Believe In You
TTITLE4=Oak Ridge Boys - Elvira
TTITLE5=Ronnie Milsap - (There's) No Gettin' Over Me
TTITLE6=Ricky Skaggs - Highway 40 Blues
TTITLE7=Alabama - Love in the First Degree
TTITLE8=Willie Nelson - Always on My Mind
TTITLE9=George Jones - He Stopped Loving Her Today
TTITLE10=Merle Haggard - That's the Way Love Goes
TTITLE11=John David Anderson - Swingin'
TTITLE12=Rosanne Cash - Never Be You
TTITLE13=Randy Travis - Forever and Ever, Amen
TTITLE14=Ricky Van Shelton - I'll Leave This World Loving You
TTITLE15=Dwight Yoakam and Buck Owens - Streets of Bakersfield
TTITLE16=Clint Black - A Better Man
EXTD=
EXTT0=
EXTT1=
EXTT2=
EXTT3=
EXTT4=
EXTT5=
EXTT6=
EXTT7=
EXTT8=
EXTT9=
EXTT10=
EXTT11=
EXTT12=
EXTT13=
EXTT14=
EXTT15=
EXTT16=
PLAYORDER=
